<svg xmlns="http://www.w3.org/2000/svg" xmlns:xlink="http://www.w3.org/1999/xlink" width="1024" zoomAndPan="magnify" viewBox="0 0 768 449.999984" height="600" preserveAspectRatio="xMidYMid meet" version="1.0"><defs><clipPath id="fd8e8ede8d"><path d="M 204.726562 114 L 384 114 L 384 425.195312 L 204.726562 425.195312 Z M 204.726562 114 " clip-rule="nonzero"/></clipPath><clipPath id="ffd42e4319"><path d="M 383.425781 114 L 563.226562 114 L 563.226562 425.195312 L 383.425781 425.195312 Z M 383.425781 114 " clip-rule="nonzero"/></clipPath><clipPath id="0bacd70f86"><path d="M 204.726562 24.726562 L 563.226562 24.726562 L 563.226562 204 L 204.726562 204 Z M 204.726562 24.726562 " clip-rule="nonzero"/></clipPath></defs><g clip-path="url(#fd8e8ede8d)"><path fill="#000000" d="M 383.992188 425.195312 L 204.726562 335.558594 L 204.726562 114.363281 L 383.992188 204 L 383.992188 425.195312 " fill-opacity="1" fill-rule="nonzero"/></g><g clip-path="url(#ffd42e4319)"><path fill="#333333" d="M 563.253906 335.558594 L 383.992188 425.195312 L 383.992188 204 L 563.253906 114.363281 L 563.253906 335.558594 " fill-opacity="1" fill-rule="nonzero"/></g><g clip-path="url(#0bacd70f86)"><path fill="#666666" d="M 563.253906 114.363281 L 383.992188 204 L 204.726562 114.363281 L 383.992188 24.730469 L 563.253906 114.363281 " fill-opacity="1" fill-rule="nonzero"/></g><path fill="#ffffff" d="M 269.808594 325.171875 C 269.808594 320.527344 271.386719 317.488281 274.550781 316.050781 C 277.714844 314.621094 281.769531 315.144531 286.710938 317.613281 C 291.640625 320.078125 295.695312 323.613281 298.859375 328.207031 C 302.023438 332.804688 303.605469 337.429688 303.605469 342.070312 C 303.605469 346.648438 302.054688 349.648438 298.964844 351.082031 C 295.867188 352.515625 291.777344 351.960938 286.710938 349.425781 C 281.625 346.882812 277.542969 343.351562 274.445312 338.824219 C 271.355469 334.296875 269.808594 329.746094 269.808594 325.171875 Z M 272.828125 294.710938 C 272.828125 284.96875 274.011719 277.796875 276.378906 273.203125 C 278.742188 268.609375 283.074219 265.082031 289.371094 262.625 C 295.65625 260.164062 299.847656 257.699219 301.9375 255.230469 C 304.019531 252.753906 305.070312 249.566406 305.070312 245.664062 C 305.070312 233.894531 299.636719 225.292969 288.792969 219.867188 C 283.644531 217.292969 279.523438 216.820312 276.429688 218.445312 C 273.332031 220.066406 271.714844 223.632812 271.578125 229.136719 L 241.324219 214.011719 C 241.464844 200.785156 245.761719 192.527344 254.210938 189.238281 C 262.660156 185.945312 274.183594 187.945312 288.792969 195.253906 C 303.535156 202.621094 314.976562 211.914062 323.113281 223.113281 C 331.253906 234.320312 335.324219 246.429688 335.324219 259.445312 C 335.324219 265.363281 334 270.289062 331.355469 274.222656 C 328.710938 278.152344 324.085938 281.671875 317.484375 284.773438 L 309.03125 288.589844 C 303.746094 291.027344 300.71875 295.464844 299.953125 301.90625 L 299.539062 308.066406 L 272.828125 294.710938 " fill-opacity="1" fill-rule="nonzero"/><path fill="#ffffff" d="M 455.105469 343.242188 C 455.105469 338.597656 456.683594 333.980469 459.847656 329.382812 C 463.015625 324.789062 467.070312 321.253906 472.007812 318.785156 C 476.9375 316.316406 480.992188 315.796875 484.15625 317.226562 C 487.320312 318.660156 488.90625 321.699219 488.90625 326.339844 C 488.90625 330.917969 487.355469 335.472656 484.261719 339.996094 C 481.164062 344.527344 477.078125 348.0625 472.007812 350.597656 C 466.925781 353.136719 462.84375 353.691406 459.746094 352.253906 C 456.652344 350.824219 455.105469 347.820312 455.105469 343.242188 Z M 458.125 309.761719 C 458.125 300.015625 459.3125 291.660156 461.675781 284.703125 C 464.042969 277.742188 468.371094 269.886719 474.664062 261.136719 C 480.957031 252.386719 485.144531 245.734375 487.234375 241.167969 C 489.320312 236.609375 490.367188 232.375 490.367188 228.472656 C 490.367188 216.707031 484.9375 213.53125 474.089844 218.953125 C 468.941406 221.527344 464.820312 225.175781 461.730469 229.894531 C 458.632812 234.613281 457.011719 239.796875 456.875 245.441406 L 426.625 260.570312 C 426.761719 247.207031 431.054688 234.648438 439.507812 222.90625 C 447.960938 211.164062 459.484375 201.640625 474.089844 194.339844 C 488.832031 186.964844 500.277344 184.8125 508.414062 187.878906 C 516.550781 190.945312 520.617188 198.984375 520.617188 212.003906 C 520.617188 217.917969 519.296875 224.167969 516.65625 230.742188 C 514.011719 237.320312 509.386719 245.464844 502.78125 255.167969 L 494.332031 267.433594 C 489.042969 275.15625 486.015625 282.625 485.25 289.828125 L 484.835938 296.40625 L 458.125 309.761719 " fill-opacity="1" fill-rule="nonzero"/><path fill="#ffffff" d="M 429.589844 147.625 C 425.140625 145.398438 422.988281 142.808594 423.128906 139.847656 C 423.273438 136.886719 425.710938 134.226562 430.441406 131.859375 C 435.164062 129.5 440.492188 128.28125 446.410156 128.207031 C 452.328125 128.136719 457.515625 129.210938 461.960938 131.4375 C 466.34375 133.625 468.480469 136.179688 468.367188 139.085938 C 468.261719 142 465.769531 144.671875 460.917969 147.097656 C 456.050781 149.53125 450.710938 150.773438 444.886719 150.828125 C 439.074219 150.882812 433.972656 149.816406 429.589844 147.625 Z M 401.859375 130.859375 C 392.523438 126.195312 386.222656 121.90625 382.953125 118.011719 C 379.683594 114.109375 378.378906 109.308594 379.039062 103.609375 C 379.695312 97.914062 379.34375 93.726562 377.972656 91.039062 C 376.601562 88.355469 374.050781 86.078125 370.308594 84.207031 C 359.035156 78.570312 348.195312 78.351562 337.808594 83.546875 C 332.878906 86.011719 330.449219 88.742188 330.527344 91.742188 C 330.597656 94.746094 333.238281 97.617188 338.449219 100.355469 L 309.472656 114.84375 C 296.871094 108.40625 291.015625 101.367188 291.910156 93.71875 C 292.800781 86.070312 300.234375 78.75 314.226562 71.753906 C 328.347656 64.691406 342.726562 60.921875 357.351562 60.441406 C 371.980469 59.964844 385.53125 62.839844 398 69.078125 C 403.664062 71.910156 407.75 75.21875 410.253906 79 C 412.757812 82.785156 413.910156 87.792969 413.71875 94.023438 L 413.328125 101.921875 C 413.128906 106.886719 415.933594 111.1875 421.738281 114.820312 L 427.441406 118.070312 L 401.859375 130.859375 " fill-opacity="1" fill-rule="nonzero"/></svg>